<svg width="18" height="18" viewBox="0 0 18 18" fill="none" xmlns="http://www.w3.org/2000/svg">
<g clip-path="url(#clip0_555_23803)">
<path d="M18 9C18 13.9706 13.9706 18 9 18C7.87267 18 6.79395 17.7921 5.79941 17.4136C4.88754 15.0179 2.9821 13.1125 0.586533 12.2006C0.207916 11.2061 0 10.1273 0 9C0 4.02937 4.02937 0 9 0C13.9706 0 18 4.02937 18 9Z" fill="#08B772"/>
<path d="M16.9204 6.30159L12.9914 10.2306L5.80637 17.4156C3.4064 16.5038 1.4978 14.5952 0.585938 12.1952L11.7 1.08116C13.1415 -0.360386 15.4789 -0.360386 16.9204 1.08116C18.362 2.5227 18.362 4.86004 16.9204 6.30159Z" fill="#FCB30B"/>
<path d="M16.9194 6.30168L12.9904 10.2307L5.80533 17.4157C4.82315 17.0425 3.92337 16.5022 3.14032 15.8297C3.13359 15.8219 3.127 15.8141 3.12027 15.8062C2.0248 14.5218 2.11214 12.6071 3.3058 11.4135L12.6685 2.05079C13.9444 0.774869 15.9218 0.628476 17.359 1.61107C18.3417 3.04835 18.1953 5.02575 16.9194 6.30168ZM16.8756 7.38287C16.6814 7.38287 16.524 7.54025 16.524 7.73443C16.524 7.92862 16.6814 8.086 16.8756 8.086C17.0697 8.086 17.2271 7.92862 17.2271 7.73443C17.2271 7.54025 17.0697 7.38287 16.8756 7.38287ZM17.5787 7.03131C17.7729 7.03131 17.9303 6.87393 17.9303 6.67975C17.9303 6.48556 17.7729 6.32818 17.5787 6.32818C17.3845 6.32818 17.2271 6.48556 17.2271 6.67975C17.2271 6.87393 17.3845 7.03131 17.5787 7.03131ZM17.649 9.14068C17.4548 9.14068 17.2974 9.29806 17.2974 9.49225C17.2974 9.68643 17.4548 9.84381 17.649 9.84381C17.8432 9.84381 18.0006 9.68643 18.0006 9.49225C18.0006 9.29806 17.8432 9.14068 17.649 9.14068Z" fill="#FDBF43"/>
<path d="M9.02496 9.26467C9.62221 10.299 9.93147 11.329 9.90304 12.0217C9.89728 12.1629 9.74443 12.251 9.61932 12.1855C9.00519 11.8638 8.26787 11.0808 7.67062 10.0466C7.07351 9.01226 6.76425 7.98215 6.79268 7.2896C6.79844 7.14843 6.95115 7.06012 7.0764 7.12577C7.6904 7.44753 8.42785 8.2303 9.02496 9.26467ZM4.17615 10.026C4.05104 9.96038 3.89819 10.0485 3.89242 10.1897C3.864 10.8824 4.17326 11.9125 4.77037 12.9467C5.36761 13.9811 6.10493 14.764 6.71907 15.0856C6.84418 15.1513 6.99702 15.0631 7.00279 14.9219C7.03122 14.2293 6.72195 13.1991 6.12471 12.1649C5.5276 11.1306 4.79014 10.3478 4.17615 10.026ZM9.97665 4.22551C9.85141 4.15987 9.6987 4.24817 9.69293 4.38935C9.6645 5.08203 9.97377 6.112 10.5709 7.14637C11.1681 8.18059 11.9054 8.9635 12.5196 9.28527C12.6447 9.35077 12.7974 9.26261 12.8033 9.12143C12.8317 8.42874 12.5225 7.39864 11.9252 6.36441C11.3281 5.33005 10.5907 4.54727 9.97665 4.22551ZM14.8255 3.46416C14.2284 2.4298 13.4909 1.64702 12.8769 1.32526C12.7517 1.25975 12.599 1.34792 12.5932 1.48909C12.5648 2.18178 12.874 3.21175 13.4711 4.24611C14.0684 5.28034 14.8057 6.06325 15.4198 6.38501C15.5449 6.45052 15.6976 6.36235 15.7035 6.22118C15.732 5.52849 15.4227 4.49852 14.8255 3.46416Z" fill="#FDA800"/>
<path d="M15.703 6.2213C15.6971 6.36247 15.5444 6.45064 15.4193 6.38513C15.2328 6.28735 15.035 6.147 14.8332 5.97012C14.9092 5.25272 14.678 4.17729 14.1598 3.07303C13.8872 2.49185 13.5697 1.97701 13.2428 1.56104C13.7691 1.95792 14.3428 2.62904 14.8249 3.46428C15.4222 4.49864 15.7314 5.52861 15.703 6.2213ZM4.51562 10.2422C4.84975 10.6624 5.17467 11.1866 5.45303 11.7798C5.96857 12.8787 6.20024 13.9491 6.12746 14.6666C6.33098 14.8454 6.53052 14.9874 6.71852 15.0859C6.84363 15.1514 6.99648 15.0632 7.00224 14.9221C7.03067 14.2294 6.72141 13.1994 6.12416 12.165C5.6339 11.3158 5.04915 10.6364 4.51562 10.2422ZM7.3446 7.29082C7.69795 7.72189 8.0432 8.27066 8.33667 8.89619C8.84547 9.98055 9.0777 11.0372 9.01384 11.7543C9.22217 11.939 9.42651 12.0848 9.61877 12.1856C9.74388 12.2511 9.89673 12.163 9.9025 12.0218C9.93092 11.3291 9.62166 10.2991 9.02441 9.26479C8.51218 8.37764 7.89694 7.67575 7.3446 7.29082ZM9.98009 4.22783C10.4011 4.68555 10.8223 5.31987 11.1706 6.06227C11.6519 7.08798 11.8858 8.08897 11.8556 8.8013C12.0841 9.011 12.3088 9.17525 12.519 9.28539C12.6441 9.35089 12.7968 9.26273 12.8027 9.12155C12.8312 8.42886 12.5219 7.39876 11.9247 6.36453C11.3288 5.3325 10.5934 4.55083 9.98009 4.22783Z" fill="#FC9302"/>
</g>
<defs>
<clipPath id="clip0_555_23803">
<rect width="18" height="18" fill="white"/>
</clipPath>
</defs>
</svg>
